<?xml version="1.0" standalone="no"?>
<!DOCTYPE svg PUBLIC "-//W3C//DTD SVG 20010904//EN"
 "http://www.w3.org/TR/2001/REC-SVG-20010904/DTD/svg10.dtd">
<svg version="1.0" xmlns="http://www.w3.org/2000/svg"
 width="288.000000pt" height="288.000000pt" viewBox="0 0 288.000000 288.000000"
 preserveAspectRatio="xMidYMid meet">
<metadata>
Created by potrace 1.14, written by Peter Selinger 2001-2017
</metadata>
<g transform="translate(0.000000,288.000000) scale(0.100000,-0.100000)"
fill="#000000" stroke="none">
<path d="M420 1440 l0 -1425 378 0 377 0 1 177 2 178 -177 2 -176 3 0 1068 c0
1061 0 1067 20 1067 11 1 90 2 175 3 l155 2 0 175 0 175 -377 0 -378 0 0
-1425z"/>
<path d="M1705 2860 c-1 -3 -2 -644 -1 -1425 l1 -1420 377 0 378 0 0 178 0
177 -175 0 c-175 0 -175 0 -175 23 -3 248 0 2110 3 2114 3 2 81 5 173 6 l169
2 3 175 2 175 -376 0 c-207 0 -377 -2 -379 -5z"/>
</g>
</svg>
